<?xml version="1.0" encoding="UTF-8" standalone="no"?>
<svg
   xmlns:dc="http://purl.org/dc/elements/1.1/"
   xmlns:cc="http://creativecommons.org/ns#"
   xmlns:rdf="http://www.w3.org/1999/02/22-rdf-syntax-ns#"
   xmlns:svg="http://www.w3.org/2000/svg"
   xmlns="http://www.w3.org/2000/svg"
   xmlns:sodipodi="http://sodipodi.sourceforge.net/DTD/sodipodi-0.dtd"
   xmlns:inkscape="http://www.inkscape.org/namespaces/inkscape"
   version="1.1"
   id="svg2"
   width="155"
   height="177"
   viewBox="0 0 155 177"
   sodipodi:docname="ring.svg"
   inkscape:version="1.0.2 (e86c870879, 2021-01-15)">
  <metadata
     id="metadata8">
    <rdf:RDF>
      <cc:Work
         rdf:about="">
        <dc:format>image/svg+xml</dc:format>
        <dc:type
           rdf:resource="http://purl.org/dc/dcmitype/StillImage" />
        <dc:title></dc:title>
      </cc:Work>
    </rdf:RDF>
  </metadata>
  <defs
     id="defs6" />
  <sodipodi:namedview
     pagecolor="#ffffff"
     bordercolor="#666666"
     borderopacity="1"
     objecttolerance="10"
     gridtolerance="10"
     guidetolerance="10"
     inkscape:pageopacity="0"
     inkscape:pageshadow="2"
     inkscape:window-width="1920"
     inkscape:window-height="1000"
     id="namedview4"
     showgrid="false"
     inkscape:zoom="3.183978"
     inkscape:cx="92.324459"
     inkscape:cy="76.675387"
     inkscape:window-x="0"
     inkscape:window-y="0"
     inkscape:window-maximized="1"
     inkscape:current-layer="g10" />
  <g
     inkscape:groupmode="layer"
     inkscape:label="Image"
     id="g10">
    <path
       style="fill:#ff0000;fill-opacity:1;stroke:#1a1a1a;stroke-width:1.15698px;stroke-linecap:butt;stroke-linejoin:miter;stroke-opacity:1"
       d="m 19.737438,125.18745 c 2.222977,18.30097 11.313528,18.25554 18.01521,24.59186 11.629552,6.88853 23.555498,9.61514 28.044958,10.4196 17.535426,3.14211 0.599077,-3.54556 -7.751652,-10.37532 -32.420449,-26.51551 -10.91988,-56.329402 -6.727819,-61.229735 9.905378,-11.578946 26.7948,-12.193153 29.575401,-11.961778 23.514684,1.956666 32.551614,14.027925 36.690954,25.828783 0.98396,2.80517 5.92976,17.2098 -4.26923,36.06584 -7.06564,13.06305 -25.409386,15.1463 -22.855934,21.41454 1.28133,3.14542 27.268564,-2.76244 31.774314,-10.05167 5.38298,-3.35326 10.26672,-2.15194 16.32475,-11.66366 -7.32497,0.7875 -12.51172,-0.55671 -10.61007,-8.96772 6.99165,-7.60291 12.25768,-17.65829 11.08356,-39.525201 -2.37096,9.878302 -10.92835,22.542411 -9.94479,-3.401102 -0.34556,-8.111927 -3.42403,-13.520573 -8.89436,-16.563316 -3.32578,16.315067 -12.99328,5.171716 -11.74765,-3.780911 -0.515,-9.922479 0.29961,-19.978665 -4.62925,-29.457277 -1.20943,7.872381 -1.06658,18.210298 -7.338088,16.853353 C 99.34623,27.869388 86.050139,20.897221 78.496604,7.3378411 79.512959,30.741384 78.576692,48.586496 71.270989,48.300144 66.011458,50.359639 61.957163,49.586639 64.379886,33.591621 50.885403,52.474297 67.375546,62.236027 51.645079,72.767716 41.030677,74.362833 49.318903,57.6661 44.839692,51.186902 42.600695,72.029895 36.488879,58.388956 32.376211,92.581083 27.996218,96.255023 25.425781,79.733347 24.672547,82.157082 13.28911,118.78637 32.02477,108.25999 29.67469,130.482 c -2.407904,0.91746 -5.571108,-0.4049 -9.937252,-5.29455 z"
       id="path837"
       sodipodi:nodetypes="ccssssssscccccccccccccccscc" />
  </g>
</svg>
